<svg width="96" height="96" viewBox="0 0 96 96" fill="none" xmlns="http://www.w3.org/2000/svg">
<rect width="96" height="96" rx="24" fill="#42E6EB"/>
<path d="M35.528 47.6849L67.0423 15.9004L67.9877 15L52.1855 40.4816L61.1896 39.0409L48.809 54.2128L57.4079 53.9427L29 81L41.3356 61.4161L33.9523 61.7763L44.1719 46.9195L35.528 47.6849Z" fill="#233333"/>
<path opacity="0.5" fill-rule="evenodd" clip-rule="evenodd" d="M48 74C62.3594 74 74 62.3594 74 48C74 40.004 70.3905 32.851 64.7119 28.0816L66.8996 24.7006C73.6723 30.2011 78 38.5951 78 48C78 64.5685 64.5685 78 48 78C44.7357 78 41.5931 77.4786 38.6511 76.5146L42.0603 73.3184C43.968 73.7642 45.9565 74 48 74ZM32.8095 69.1033C26.262 64.382 22 56.6887 22 48C22 33.6406 33.6406 22 48 22C50.4385 22 52.7986 22.3357 55.0366 22.9634L58.2158 19.7842C55.0272 18.6296 51.5871 18 48 18C31.4315 18 18 31.4315 18 48C18 58.0387 22.9307 66.9258 30.5025 72.3715L32.8095 69.1033Z" fill="#233333"/>
</svg>
