<svg width="180" height="172" viewBox="0 0 180 172" fill="none" xmlns="http://www.w3.org/2000/svg">
<path d="M149.626 40.7669V41.0169H149.876H150.567L150.567 58.8975H149.875H149.625V59.1475V156.606C149.625 160.503 148.077 164.241 145.321 166.997C142.565 169.753 138.828 171.301 134.93 171.301H80.2223C76.325 171.301 72.5872 169.753 69.8314 166.997C67.0756 164.241 65.5273 160.503 65.5273 156.606V14.9447C65.5274 13.015 65.9075 11.1041 66.646 9.32123C67.3845 7.53836 68.467 5.91842 69.8316 4.55389C71.1962 3.18936 72.8161 2.10696 74.599 1.3685C76.3819 0.630034 78.2928 0.249969 80.2225 0.25H134.931C138.828 0.25 142.566 1.79822 145.322 4.55406C148.078 7.3099 149.626 11.0476 149.626 14.945V40.7669Z" fill="#233333" stroke="#42E6EB" stroke-width="0.5"/>
<path d="M146.811 13.9438V157.606C146.81 160.612 145.616 163.494 143.491 165.619C141.367 167.744 138.485 168.939 135.48 168.94H79.6488C76.6425 168.94 73.759 167.746 71.6328 165.621C69.5065 163.496 68.3114 160.613 68.3105 157.606V13.9438C68.3114 10.9376 69.5064 8.05477 71.6326 5.92948C73.7588 3.80419 76.6421 2.61046 79.6483 2.61084H86.421C86.0884 3.42863 85.9618 4.31558 86.0524 5.19375C86.1429 6.07191 86.4477 6.91439 86.9401 7.64714C87.4325 8.3799 88.0973 8.98048 88.8762 9.39612C89.655 9.81175 90.524 10.0297 91.4069 10.0308H123.237C124.12 10.0297 124.989 9.81175 125.768 9.39612C126.547 8.98048 127.211 8.3799 127.704 7.64714C128.196 6.91439 128.501 6.07191 128.592 5.19375C128.682 4.31558 128.555 3.42863 128.223 2.61084H135.478C138.483 2.61135 141.365 3.80523 143.49 5.92999C145.615 8.05475 146.809 10.9365 146.811 13.9416V13.9438Z" fill="#394747"/>
<path d="M107.549 71.6155C120.422 71.6155 130.858 61.1799 130.858 48.3068C130.858 35.4337 120.422 24.998 107.549 24.998C94.6759 24.998 84.2402 35.4337 84.2402 48.3068C84.2402 61.1799 94.6759 71.6155 107.549 71.6155Z" fill="#42E6EB"/>
<path d="M178.736 172H0.467789C0.209273 172 0 171.887 0 171.748C0 171.609 0.209514 171.496 0.467789 171.496H178.736C178.994 171.496 179.204 171.609 179.204 171.748C179.204 171.887 178.994 172 178.736 172Z" fill="#4F5B5C"/>
<path d="M171.188 162.16C170.426 162.428 169.609 162.495 168.814 162.355C168.019 162.215 167.273 161.873 166.649 161.361C165.059 160.026 164.56 157.828 164.155 155.792L162.955 149.771L165.467 151.5C167.273 152.744 169.12 154.028 170.37 155.829C171.621 157.631 172.167 160.09 171.162 162.039" fill="#7B8485"/>
<path d="M170.801 169.869C171.117 167.566 171.442 165.233 171.22 162.906C171.023 160.838 170.393 158.819 169.109 157.164C168.427 156.287 167.598 155.535 166.658 154.943C166.413 154.788 166.187 155.177 166.431 155.331C168.057 156.358 169.315 157.876 170.023 159.665C170.805 161.654 170.931 163.822 170.796 165.935C170.714 167.213 170.541 168.482 170.367 169.75C170.354 169.807 170.362 169.868 170.391 169.919C170.42 169.97 170.468 170.009 170.524 170.026C170.582 170.042 170.643 170.034 170.695 170.004C170.746 169.975 170.784 169.927 170.8 169.869H170.801Z" fill="#4F5B5C"/>
<path d="M168.525 166.174C168.198 166.67 167.749 167.074 167.221 167.347C166.693 167.619 166.104 167.751 165.51 167.73C163.983 167.658 162.711 166.592 161.565 165.582L158.178 162.59L160.42 162.483C162.032 162.406 163.686 162.334 165.223 162.831C166.76 163.328 168.176 164.525 168.456 166.114" fill="#7B8485"/>
<path d="M171.693 171.193C170.172 168.5 168.406 165.508 165.252 164.551C164.375 164.286 163.455 164.191 162.543 164.271C162.255 164.295 162.327 164.74 162.615 164.715C164.145 164.588 165.672 164.992 166.938 165.859C168.158 166.688 169.107 167.842 169.91 169.066C170.402 169.814 170.843 170.596 171.284 171.376C171.424 171.625 171.836 171.446 171.693 171.193Z" fill="#4F5B5C"/>
<path d="M102.514 41.9065L101.148 43.272L112.584 54.7076L113.949 53.3421L102.514 41.9065Z" fill="#233333"/>
<path d="M113.949 43.2717L112.584 41.9062L101.148 53.3418L102.514 54.7073L113.949 43.2717Z" fill="#233333"/>
<path d="M21.7871 110.102C22.1216 109.983 22.4261 109.793 22.6791 109.544C22.9321 109.295 23.1275 108.994 23.2515 108.662C23.3755 108.329 23.4251 107.974 23.3968 107.62C23.3684 107.266 23.2629 106.923 23.0876 106.614L28.7757 100.13L24.3355 99.5176L19.6147 105.769C19.1159 106.098 18.7551 106.598 18.6006 107.175C18.4461 107.753 18.5087 108.366 18.7765 108.9C19.0442 109.434 19.4986 109.852 20.0535 110.073C20.6084 110.295 21.2252 110.305 21.7871 110.102V110.102Z" fill="#CC9292"/>
<path d="M28.6474 167.569L24.6803 167.569L22.793 152.267L28.6481 152.267L28.6474 167.569Z" fill="#CC9292"/>
<path d="M29.657 171.415L16.8652 171.414V171.252C16.8653 169.932 17.3899 168.665 18.3236 167.732C19.2573 166.798 20.5237 166.274 21.8442 166.273H21.8445L29.6573 166.274L29.657 171.415Z" fill="#394747"/>
<path d="M49.4139 164.249L45.6252 165.425L39.2852 151.371L44.8769 149.635L49.4139 164.249Z" fill="#CC9292"/>
<path d="M51.5197 167.622L39.3031 171.414L39.2551 171.26C38.8636 169.999 38.9891 168.634 39.6039 167.465C40.2188 166.297 41.2726 165.42 42.5336 165.029L42.534 165.028L49.9954 162.712L51.5197 167.622Z" fill="#394747"/>
<path d="M25.6079 97.0205L19.7324 103.75L24.3322 104.163L25.6079 97.0205Z" fill="#7B8485"/>
<path d="M23.3135 105.694C23.3135 105.694 21.2726 106.714 21.0175 111.306C20.7624 115.898 21.7829 127.889 21.7829 127.889C21.7829 127.889 20.7626 133.246 21.7829 138.093C22.8032 142.94 20.7626 160.541 22.0381 160.541C23.3135 160.541 29.9461 161.307 30.2012 160.541C30.4564 159.776 30.7115 148.296 30.7115 148.296C30.7115 148.296 32.7524 142.429 30.7115 138.858C30.7115 138.858 37.8372 151.301 42.4462 160.797C43.4549 162.875 51.1196 160.542 49.8442 158.246C48.5687 155.95 45.5076 145.491 45.5076 145.491C45.5076 145.491 43.2116 137.838 39.1301 134.521L41.1709 118.195C41.1709 118.195 45.5078 107.225 42.9571 105.695C40.4065 104.164 23.3135 105.694 23.3135 105.694Z" fill="#394747"/>
<path d="M30.9666 64.1119C34.6297 64.1119 37.5992 61.1424 37.5992 57.4793C37.5992 53.8162 34.6297 50.8467 30.9666 50.8467C27.3035 50.8467 24.334 53.8162 24.334 57.4793C24.334 61.1424 27.3035 64.1119 30.9666 64.1119Z" fill="#CC9292"/>
<path d="M38.3631 64.6221L30.1176 69.469C30.1176 69.469 26.9604 71.247 25.781 74.3158C24.5239 77.5865 25.2546 82.1915 25.781 83.2444C26.8013 85.2853 25.353 90.3873 25.353 90.3873L24.0776 102.122C24.0776 102.122 19.4858 106.459 23.0573 106.969C26.6287 107.479 33.0062 106.714 36.8328 106.969C40.6594 107.224 44.996 107.734 43.7205 105.183C42.4451 102.631 40.9145 100.846 42.4451 95.7447C43.6428 91.7523 43.5909 76.8247 43.5117 70.5206C43.5008 69.6549 43.2686 68.8064 42.8372 68.0557C42.4058 67.3051 41.7895 66.6773 41.047 66.2321L38.3631 64.6221Z" fill="#7B8485"/>
<path opacity="0.1" d="M34.6671 72.6582L35.4322 88.2194L28.0156 103.239L26.7578 102.76L34.411 88.7294L34.6671 72.6582Z" fill="black"/>
<path opacity="0.1" d="M43.0827 91.5352V89.749L34.4102 104.035L43.0827 91.5352Z" fill="black"/>
<path d="M26.2572 51.3353L25.1616 50.897C25.1616 50.897 27.4547 48.3729 30.644 48.5923L29.7468 47.6046C29.7468 47.6046 31.9398 46.7267 33.9335 49.0311C34.9816 50.2426 36.1941 51.6668 36.9508 53.2707H38.1251L37.6351 54.3499L39.3503 55.4291L37.5897 55.236C37.7565 56.1677 37.6994 57.1257 37.4232 58.031L37.4714 58.884C37.4714 58.884 35.4296 55.7246 35.4296 55.2862V56.3838C35.4296 56.3838 34.333 55.3961 34.333 54.7376L33.7349 55.5059L33.4358 54.299L29.7476 55.5059L30.3452 54.5177L28.0521 54.8469L28.9493 53.64C28.9493 53.64 26.3576 55.0666 26.2579 56.274C26.1583 57.4813 24.8625 59.0175 24.8625 59.0175L24.2644 57.9199C24.2644 57.9199 23.3674 52.9815 26.2572 51.3353Z" fill="#394747"/>
<path d="M30.5505 110.823C30.8587 110.647 31.1245 110.406 31.3294 110.116C31.5342 109.827 31.673 109.495 31.736 109.146C31.799 108.797 31.7847 108.438 31.694 108.095C31.6034 107.752 31.4386 107.433 31.2113 107.161L35.6582 99.7695L31.1797 99.9548L27.6435 106.945C27.211 107.357 26.9447 107.914 26.8951 108.509C26.8456 109.104 27.0161 109.697 27.3744 110.175C27.7327 110.653 28.254 110.983 28.8393 111.103C29.4247 111.222 30.0335 111.123 30.5505 110.823V110.823Z" fill="#CC9292"/>
<path d="M40.6603 67.9392L42.5735 67.5566C42.5735 67.5566 48.3132 71.7658 46.5275 80.1841C44.7418 88.6025 36.8337 101.358 36.8337 101.358C36.8337 101.358 35.0475 103.654 34.5377 104.164C34.0279 104.674 33.0072 104.164 33.5174 104.929C34.0277 105.694 32.752 106.205 32.752 106.205C32.752 106.205 27.1397 106.205 27.65 104.164C28.1603 102.123 36.8337 87.5809 36.8337 87.5809L35.5583 74.0606C35.5583 74.0606 34.5375 67.429 40.6603 67.9392Z" fill="#7B8485"/>
<path d="M89.8587 93.7174C91.9898 93.7174 93.7174 91.9898 93.7174 89.8587C93.7174 87.7276 91.9898 86 89.8587 86C87.7276 86 86 87.7276 86 89.8587C86 91.9898 87.7276 93.7174 89.8587 93.7174Z" fill="#42E6EB"/>
<path d="M88.0101 89.1377C87.9657 89.1377 87.9297 89.4257 87.9297 89.7807C87.9297 90.1358 87.9657 90.424 88.0101 90.424H91.8043C91.8487 90.4298 91.8854 90.1467 91.8861 89.7916C91.9108 89.5705 91.8837 89.3467 91.807 89.1379H88.0101V89.1377Z" fill="#233333"/>
<rect x="98.3125" y="87.3105" width="32" height="1.5" fill="#7B8485"/>
<rect x="98.3125" y="91.3105" width="32" height="1.5" fill="#7B8485"/>
<rect x="82.25" y="83.25" width="51.5" height="13.5" stroke="#7B8485" stroke-width="0.5"/>
<path d="M89.8587 115.717C91.9898 115.717 93.7174 113.99 93.7174 111.859C93.7174 109.728 91.9898 108 89.8587 108C87.7276 108 86 109.728 86 111.859C86 113.99 87.7276 115.717 89.8587 115.717Z" fill="#42E6EB"/>
<path d="M88.0101 111.138C87.9657 111.138 87.9297 111.426 87.9297 111.781C87.9297 112.136 87.9657 112.424 88.0101 112.424H91.8043C91.8487 112.43 91.8854 112.147 91.8861 111.792C91.9108 111.571 91.8837 111.347 91.807 111.138H88.0101V111.138Z" fill="#233333"/>
<rect x="98.3125" y="109.311" width="32" height="1.5" fill="#7B8485"/>
<rect x="98.3125" y="113.311" width="32" height="1.5" fill="#7B8485"/>
<rect x="82.25" y="105.25" width="51.5" height="13.5" stroke="#7B8485" stroke-width="0.5"/>
<path d="M89.8587 137.717C91.9898 137.717 93.7174 135.99 93.7174 133.859C93.7174 131.728 91.9898 130 89.8587 130C87.7276 130 86 131.728 86 133.859C86 135.99 87.7276 137.717 89.8587 137.717Z" fill="#42E6EB"/>
<path d="M88.0101 133.138C87.9657 133.138 87.9297 133.426 87.9297 133.781C87.9297 134.136 87.9657 134.424 88.0101 134.424H91.8043C91.8487 134.43 91.8854 134.147 91.8861 133.792C91.9108 133.571 91.8837 133.347 91.807 133.138H88.0101V133.138Z" fill="#233333"/>
<rect x="98.3125" y="131.311" width="32" height="1.5" fill="#7B8485"/>
<rect x="98.3125" y="135.311" width="32" height="1.5" fill="#7B8485"/>
<rect x="82.25" y="127.25" width="51.5" height="13.5" stroke="#7B8485" stroke-width="0.5"/>
</svg>
