<svg width="32" height="32" viewBox="0 0 32 32" fill="currentColor" xmlns="http://www.w3.org/2000/svg">
<path fill-rule="evenodd" clip-rule="evenodd" d="M14.8469 13.0356C14.5183 13.0356 14.1639 13.3376 14.1639 13.8073C14.1639 14.1846 14.2447 14.303 14.27 14.3352C14.3041 14.3785 14.3845 14.4501 14.6444 14.5429L17.9811 15.7069C18.3785 15.8483 18.8437 16.074 19.1925 16.5207C19.5495 16.9779 19.6913 17.5441 19.6913 18.1827C19.6913 19.5891 18.6018 20.8005 17.162 20.8005H15.0796C13.5125 20.8005 12.3066 19.4842 12.3066 17.939C12.3066 17.4292 12.7199 17.0159 13.2297 17.0159C13.7395 17.0159 14.1528 17.4292 14.1528 17.939C14.1528 18.5427 14.6085 18.9544 15.0796 18.9544H17.162C17.4945 18.9544 17.8451 18.6594 17.8451 18.1827C17.8451 17.8132 17.7653 17.6927 17.7374 17.657C17.7014 17.6109 17.6187 17.5378 17.3646 17.4471L14.0279 16.2831C13.6363 16.1437 13.1688 15.9221 12.8181 15.4754C12.4584 15.0175 12.3177 14.4491 12.3177 13.8073C12.3177 12.4161 13.4033 11.1895 14.8469 11.1895H16.9294C18.4965 11.1895 19.7023 12.5058 19.7023 14.051C19.7023 14.5608 19.2891 14.9741 18.7793 14.9741C18.2695 14.9741 17.8562 14.5608 17.8562 14.051C17.8562 13.4472 17.4005 13.0356 16.9294 13.0356H14.8469Z" fill="currentColor"/>
<path fill-rule="evenodd" clip-rule="evenodd" d="M15.9992 10.0923C16.5091 10.0923 16.9223 10.5056 16.9223 11.0154V20.9846C16.9223 21.4944 16.5091 21.9077 15.9992 21.9077C15.4894 21.9077 15.0762 21.4944 15.0762 20.9846V11.0154C15.0762 10.5056 15.4894 10.0923 15.9992 10.0923Z" fill="currentColor"/>
<path fill-rule="evenodd" clip-rule="evenodd" d="M16 5.84615C10.3953 5.84615 5.84615 10.3953 5.84615 16C5.84615 21.6047 10.3953 26.1538 16 26.1538C21.6047 26.1538 26.1538 21.6047 26.1538 16C26.1538 15.4902 26.5671 15.0769 27.0769 15.0769C27.5867 15.0769 28 15.4902 28 16C28 22.6243 22.6243 28 16 28C9.37574 28 4 22.6243 4 16C4 9.37574 9.37574 4 16 4C16.5098 4 16.9231 4.41328 16.9231 4.92308C16.9231 5.43288 16.5098 5.84615 16 5.84615Z" fill="currentColor"/>
<path fill-rule="evenodd" clip-rule="evenodd" d="M21.5383 5.10791C22.0481 5.10791 22.4614 5.52119 22.4614 6.03099V9.53868H25.9691C26.4789 9.53868 26.8922 9.95196 26.8922 10.4618C26.8922 10.9716 26.4789 11.3848 25.9691 11.3848H21.5383C21.0285 11.3848 20.6152 10.9716 20.6152 10.4618V6.03099C20.6152 5.52119 21.0285 5.10791 21.5383 5.10791Z" fill="currentColor"/>
<path fill-rule="evenodd" clip-rule="evenodd" d="M27.7295 4.27036C28.09 4.63085 28.09 5.21531 27.7295 5.57579L22.191 11.1143C21.8305 11.4747 21.2461 11.4747 20.8856 11.1143C20.5251 10.7538 20.5251 10.1693 20.8856 9.80882L26.4241 4.27036C26.7845 3.90988 27.369 3.90988 27.7295 4.27036Z" fill="currentColor"/>
</svg>
