<svg width="32" height="32" viewBox="0 0 32 32" fill="currentColor" xmlns="http://www.w3.org/2000/svg">
<path d="M17.173 20.7446H15.0745C13.5898 20.7446 12.373 19.4944 12.373 17.9539C12.373 17.4963 12.7526 17.1167 13.2103 17.1167C13.6679 17.1167 14.0475 17.4963 14.0475 17.9539C14.0475 18.5679 14.5052 19.0702 15.0745 19.0702H17.173C17.6084 19.0702 17.9544 18.6795 17.9544 18.1995C17.9544 17.5967 17.787 17.5074 17.4075 17.3735L14.0475 16.2014C13.333 15.9558 12.373 15.4312 12.373 13.7902C12.373 12.3949 13.4782 11.2451 14.8289 11.2451H16.9275C18.4121 11.2451 19.6289 12.4953 19.6289 14.0358C19.6289 14.4935 19.2493 14.873 18.7917 14.873C18.334 14.873 17.9544 14.4935 17.9544 14.0358C17.9544 13.4219 17.4968 12.9195 16.9275 12.9195H14.8289C14.3935 12.9195 14.0475 13.3102 14.0475 13.7902C14.0475 14.393 14.2149 14.4823 14.5944 14.6163L17.9544 15.7884C18.6689 16.0339 19.6289 16.5586 19.6289 18.1995C19.6289 19.606 18.5237 20.7446 17.173 20.7446Z" stroke="currentColor"/>
<path d="M15.9993 21.8606C15.5416 21.8606 15.1621 21.481 15.1621 21.0234V10.9769C15.1621 10.5192 15.5416 10.1396 15.9993 10.1396C16.457 10.1396 16.8365 10.5192 16.8365 10.9769V21.0234C16.8365 21.481 16.457 21.8606 15.9993 21.8606Z" stroke="currentColor"/>
<path d="M16 28C9.38047 28 4 22.6195 4 16C4 9.38047 9.38047 4 16 4C16.4577 4 16.8372 4.37953 16.8372 4.83721C16.8372 5.29488 16.4577 5.67442 16 5.67442C10.307 5.67442 5.67442 10.307 5.67442 16C5.67442 21.693 10.307 26.3256 16 26.3256C21.693 26.3256 26.3256 21.693 26.3256 16C26.3256 15.5423 26.7051 15.1628 27.1628 15.1628C27.6205 15.1628 28 15.5423 28 16C28 22.6195 22.6195 28 16 28Z" stroke="currentColor"/>
<path d="M26.0465 11.2557H21.5813C21.1237 11.2557 20.7441 10.8762 20.7441 10.4185V5.95342C20.7441 5.49575 21.1237 5.11621 21.5813 5.11621C22.039 5.11621 22.4186 5.49575 22.4186 5.95342V9.58133H26.0465C26.5041 9.58133 26.8837 9.96086 26.8837 10.4185C26.8837 10.8762 26.5041 11.2557 26.0465 11.2557Z" stroke="currentColor"/>
<path d="M21.5805 11.256C21.3684 11.256 21.1563 11.1778 20.9889 11.0104C20.6652 10.6866 20.6652 10.1508 20.9889 9.82712L26.5703 4.24572C26.894 3.922 27.4298 3.922 27.7535 4.24572C28.0773 4.56944 28.0773 5.10525 27.7535 5.42897L22.1721 11.0104C22.0047 11.1778 21.7926 11.256 21.5805 11.256Z" stroke="currentColor"/>
</svg>