<svg width="25" height="24" viewBox="0 0 25 24" fill="none" xmlns="http://www.w3.org/2000/svg">
<path d="M20.1 4.8945C20.0953 4.40112 19.8962 3.9295 19.5461 3.58188C19.196 3.23426 18.7229 3.03866 18.2295 3.0375L6.3615 3C5.86861 3.0001 5.39587 3.19563 5.04692 3.54374C4.69797 3.89184 4.50129 4.36411 4.5 4.857V17.1C4.5 18.1238 5.3355 18.9 6.3615 18.9H16.5L16.0125 17.25L20.1 21V4.8945ZM14.8744 14.7679C14.8744 14.7679 14.5474 14.3783 14.2744 14.0434C15.4646 13.7081 15.9187 12.975 15.9187 12.975C15.5918 13.1919 15.2415 13.3711 14.8744 13.5094C14.4505 13.6854 14.0092 13.816 13.5577 13.899C12.78 14.0419 11.9824 14.0388 11.2057 13.89C10.7489 13.8052 10.3018 13.6745 9.87112 13.5C9.64331 13.4127 9.42178 13.3099 9.20812 13.1921C9.18075 13.1741 9.15375 13.1651 9.12637 13.1467C9.108 13.1377 9.099 13.1288 9.08887 13.1288C8.92537 13.038 8.83462 12.9746 8.83462 12.9746C8.83462 12.9746 9.27037 13.6905 10.4239 14.0344C10.1512 14.3786 9.81525 14.7773 9.81525 14.7773C7.80862 14.7139 7.04587 13.4096 7.04587 13.4096C7.04587 10.5199 8.3535 8.17388 8.3535 8.17388C9.66112 7.2045 10.896 7.23188 10.896 7.23188L10.9867 7.34063C9.35212 7.80263 8.60775 8.51813 8.60775 8.51813C8.60775 8.51813 8.80725 8.40938 9.14325 8.26425C10.1149 7.83863 10.887 7.72988 11.2057 7.69388C11.2566 7.6833 11.3083 7.67715 11.3602 7.6755C11.9687 7.59655 12.5845 7.5905 13.1944 7.6575C14.152 7.76751 15.0798 8.05963 15.9277 8.51813C15.9277 8.51813 15.2104 7.8375 13.6665 7.37625L13.7936 7.2315C13.7936 7.2315 15.0375 7.20413 16.3365 8.175C16.3365 8.175 17.6441 10.521 17.6441 13.4108C17.6441 13.4003 16.881 14.7045 14.8744 14.7679Z" fill="#7A7B85"/>
<path d="M10.6518 10.5752C10.1343 10.5752 9.72559 11.0192 9.72559 11.5716C9.72559 12.1239 10.1433 12.5679 10.6518 12.5679C11.1693 12.5679 11.5781 12.1243 11.5781 11.5716C11.5875 11.0181 11.1693 10.5752 10.6518 10.5752Z" fill="#7A7B85"/>
<path d="M13.9663 10.5752C13.4488 10.5752 13.04 11.0192 13.04 11.5716C13.04 12.1239 13.4578 12.5679 13.9663 12.5679C14.4842 12.5679 14.8925 12.1243 14.8925 11.5716C14.8925 11.0188 14.4752 10.5752 13.9663 10.5752Z" fill="#7A7B85"/>
</svg>
