<svg width="25" height="24" viewBox="0 0 25 24" fill="none" xmlns="http://www.w3.org/2000/svg">
<path d="M3.5 3V21H21.5V3H3.5ZM18.4538 7.26474L17.4883 8.19039C17.405 8.25395 17.3639 8.35816 17.3809 8.46118V15.2617C17.3636 15.3647 17.405 15.4693 17.4883 15.5325L18.4309 16.4582V16.6614H13.6893V16.4582L14.6659 15.51C14.7618 15.4141 14.7618 15.3857 14.7618 15.2392V9.7425L12.0464 16.6389H11.6793L8.51789 9.7425V14.3649C8.49145 14.5591 8.55618 14.7549 8.69276 14.8954L9.96303 16.4361V16.6393H6.36145V16.4361L7.63171 14.8954C7.7675 14.7545 7.82829 14.5575 7.79553 14.3649V9.01974C7.81053 8.87132 7.75408 8.72447 7.64316 8.62461L6.51421 7.26434V7.06105H10.0199L12.7297 13.0038L15.112 7.06105H18.4538V7.26474Z" fill="#7A7B85"/>
</svg>
