<svg width="25" height="24" viewBox="0 0 25 24" fill="none" xmlns="http://www.w3.org/2000/svg">
<path d="M9.14991 19C7.07026 19 5.13168 18.3864 3.5 17.3276C4.88535 17.4185 7.33019 17.2007 8.85087 15.7292C6.56326 15.6227 5.5316 13.8428 5.39703 13.0822C5.5914 13.1582 6.51841 13.2495 7.04172 13.0365C4.41022 12.3671 4.00652 10.0243 4.09624 9.30933C4.58964 9.65923 5.42694 9.78093 5.75587 9.75051C3.3038 7.97059 4.18595 5.2931 4.61954 4.71501C6.37924 7.18826 9.01649 8.57733 12.2791 8.65459C12.2176 8.38089 12.1851 8.09593 12.1851 7.80325C12.1851 5.70277 13.8586 4 15.923 4C17.0016 4 17.9735 4.46484 18.6558 5.20837C19.3766 5.03703 20.4613 4.63591 20.9916 4.28905C20.7243 5.26268 19.8922 6.07488 19.3888 6.37592C19.393 6.38616 19.3847 6.36563 19.3888 6.37592C19.831 6.30807 21.0274 6.07481 21.5 5.74949C21.2663 6.29647 20.384 7.20591 19.66 7.71506C19.7947 13.7422 15.2492 19 9.14991 19Z" fill="#7A7B85"/>
</svg>
