<svg width="25" height="24" viewBox="0 0 25 24" fill="none" xmlns="http://www.w3.org/2000/svg">
<path d="M15.8934 15.5432C16.1301 14.7144 16.2866 13.7514 16.3463 12.8269C16.3476 12.8028 16.344 12.7786 16.3355 12.7559C16.3271 12.7333 16.3142 12.7126 16.2974 12.6951C16.2807 12.6776 16.2605 12.6638 16.2382 12.6545C16.2159 12.6451 16.1919 12.6405 16.1677 12.6408H13.3225C13.2992 12.6406 13.2761 12.6449 13.2545 12.6536C13.2329 12.6624 13.2133 12.6753 13.1966 12.6916C13.18 12.7079 13.1668 12.7273 13.1577 12.7488C13.1486 12.7702 13.1438 12.7932 13.1436 12.8165V15.0307C13.1441 15.0754 13.1614 15.1183 13.1921 15.1508C13.2228 15.1833 13.2647 15.2031 13.3093 15.2061C14.1111 15.2709 14.9033 15.4238 15.6716 15.6621C15.7168 15.6757 15.7655 15.6708 15.8071 15.6485C15.8487 15.6262 15.8798 15.5884 15.8934 15.5432Z" fill="#7A7B85"/>
<path d="M15.206 16.8571C14.5964 16.6792 13.9719 16.5573 13.3401 16.4932C13.3157 16.4904 13.291 16.4928 13.2676 16.5001C13.2442 16.5075 13.2225 16.5196 13.204 16.5358C13.1855 16.5519 13.1706 16.5718 13.1602 16.594C13.1498 16.6162 13.1441 16.6404 13.1436 16.6649V19.2771C13.1445 19.3082 13.1536 19.3386 13.1699 19.3652C13.1862 19.3918 13.2092 19.4136 13.2365 19.4286C13.2639 19.4435 13.2946 19.4511 13.3258 19.4505C13.357 19.4499 13.3875 19.4412 13.4142 19.4252C14.0508 19.0541 14.5754 18.4307 15.0494 17.6063C15.1271 17.4717 15.2452 17.2399 15.3165 17.0982C15.3275 17.0754 15.3334 17.0504 15.3337 17.025C15.334 16.9997 15.3287 16.9746 15.3181 16.9516C15.3075 16.9285 15.292 16.9081 15.2726 16.8918C15.2532 16.8755 15.2305 16.8636 15.206 16.8571Z" fill="#7A7B85"/>
<path d="M11.6702 16.5005C11.0392 16.5605 10.4152 16.6788 9.80598 16.8537C9.70027 16.8841 9.65583 17.0298 9.70388 17.1255C9.77555 17.2681 9.86403 17.4502 9.93971 17.5864C10.4602 18.5073 11.0144 19.0879 11.5909 19.4254C11.6177 19.4414 11.6482 19.4501 11.6793 19.4507C11.7105 19.4513 11.7413 19.4437 11.7686 19.4287C11.796 19.4138 11.8189 19.3919 11.8352 19.3653C11.8515 19.3388 11.8606 19.3084 11.8616 19.2772V16.6639C11.8614 16.64 11.8561 16.6165 11.846 16.5949C11.8359 16.5732 11.8213 16.554 11.8032 16.5385C11.785 16.523 11.7638 16.5116 11.7408 16.5051C11.7179 16.4985 11.6938 16.497 11.6702 16.5005Z" fill="#7A7B85"/>
<path d="M11.6832 12.6408H8.838C8.81384 12.6405 8.78989 12.6451 8.7676 12.6544C8.74532 12.6638 8.72519 12.6775 8.70845 12.695C8.69171 12.7124 8.67873 12.733 8.67029 12.7557C8.66186 12.7783 8.65816 12.8024 8.65942 12.8265C8.71868 13.7498 8.87443 14.7148 9.11026 15.5428C9.11695 15.5655 9.12807 15.5866 9.14297 15.6049C9.15788 15.6232 9.17627 15.6384 9.19709 15.6496C9.21791 15.6608 9.24073 15.6677 9.26425 15.67C9.28777 15.6723 9.3115 15.6699 9.33408 15.6629C10.1023 15.4246 10.8946 15.2721 11.6964 15.2081C11.7411 15.2052 11.783 15.1855 11.8138 15.153C11.8446 15.1204 11.862 15.0775 11.8626 15.0327V12.8169C11.8624 12.7936 11.8576 12.7705 11.8485 12.749C11.8394 12.7274 11.8261 12.7079 11.8095 12.6916C11.7928 12.6752 11.7731 12.6623 11.7514 12.6536C11.7297 12.6449 11.7065 12.6405 11.6832 12.6408Z" fill="#7A7B85"/>
<path d="M13.3411 7.50666C13.9724 7.44751 14.5962 7.3249 15.2029 7.1407C15.2273 7.13412 15.2499 7.12227 15.2692 7.10598C15.2884 7.08969 15.3039 7.06937 15.3144 7.04645C15.325 7.02353 15.3303 6.99858 15.3302 6.97335C15.33 6.94813 15.3243 6.92324 15.3135 6.90047C15.2418 6.75753 15.1425 6.55293 15.0664 6.4164C14.5743 5.53553 14.0198 4.92093 13.4152 4.57459C13.3884 4.55873 13.358 4.55011 13.3268 4.54959C13.2957 4.54906 13.265 4.55664 13.2377 4.57159C13.2104 4.58653 13.1874 4.60833 13.1711 4.63483C13.1548 4.66133 13.1456 4.69163 13.1445 4.72274V7.33449C13.1451 7.35906 13.1508 7.38323 13.1612 7.40548C13.1716 7.42774 13.1865 7.44759 13.205 7.46377C13.2235 7.47996 13.2451 7.49213 13.2686 7.49951C13.292 7.5069 13.3167 7.50933 13.3411 7.50666Z" fill="#7A7B85"/>
<path d="M13.3225 11.3593H16.1677C16.1917 11.3597 16.2155 11.3552 16.2377 11.3461C16.2598 11.3369 16.2799 11.3233 16.2966 11.3062C16.3133 11.289 16.3264 11.2686 16.3349 11.2462C16.3435 11.2238 16.3473 11.1999 16.3463 11.1759C16.287 10.2642 16.1353 9.26203 15.8995 8.44443C15.8926 8.42195 15.8813 8.40105 15.8663 8.38294C15.8513 8.36483 15.8329 8.34985 15.8121 8.33888C15.7913 8.32791 15.7685 8.32115 15.7451 8.31899C15.7217 8.31683 15.6981 8.31932 15.6756 8.32631C14.9149 8.55614 14.1225 8.74392 13.3097 8.80679C13.2653 8.80931 13.2235 8.82854 13.1927 8.86063C13.1618 8.89271 13.1443 8.93527 13.1436 8.97975V11.1863C13.1444 11.233 13.1637 11.2774 13.1973 11.3098C13.2308 11.3422 13.2759 11.36 13.3225 11.3593Z" fill="#7A7B85"/>
<path d="M11.5911 4.57507C10.9736 4.91821 10.4231 5.55323 9.93063 6.43169C9.85415 6.56822 9.76286 6.75641 9.69039 6.89894C9.67962 6.92173 9.67396 6.9466 9.67383 6.9718C9.6737 6.99701 9.67909 7.02194 9.68962 7.04483C9.70015 7.06773 9.71557 7.08805 9.7348 7.10434C9.75402 7.12064 9.77659 7.13253 9.8009 7.13918C10.4074 7.32676 11.032 7.44983 11.6643 7.50634C11.6887 7.50901 11.7134 7.50658 11.7368 7.49922C11.7602 7.49187 11.7818 7.47973 11.8003 7.46359C11.8188 7.44744 11.8337 7.42764 11.8441 7.40544C11.8546 7.38323 11.8603 7.3591 11.8609 7.33457V4.72321C11.8597 4.69227 11.8504 4.66218 11.8341 4.63586C11.8178 4.60953 11.795 4.58787 11.7678 4.57297C11.7407 4.55806 11.7101 4.55043 11.6792 4.55079C11.6482 4.55116 11.6178 4.55952 11.5911 4.57507Z" fill="#7A7B85"/>
<path d="M11.6959 8.80727C10.8831 8.74521 10.0899 8.55743 9.33 8.3268C9.30755 8.31981 9.28394 8.31732 9.26053 8.31948C9.23711 8.32163 9.21435 8.32839 9.19356 8.33937C9.17276 8.35034 9.15434 8.36532 9.13934 8.38343C9.12435 8.40154 9.11308 8.42244 9.10618 8.44492C8.87035 9.26252 8.7186 10.2647 8.65935 11.1764C8.6583 11.2003 8.66217 11.2243 8.67072 11.2467C8.67926 11.2691 8.6923 11.2895 8.70902 11.3067C8.72575 11.3238 8.74581 11.3374 8.76798 11.3465C8.79015 11.3557 8.81395 11.3602 8.83792 11.3598H11.6831C11.7063 11.3601 11.7293 11.3559 11.7508 11.3474C11.7724 11.3389 11.792 11.3262 11.8086 11.31C11.8253 11.2939 11.8385 11.2746 11.8477 11.2533C11.8569 11.2321 11.8618 11.2092 11.8621 11.186V8.98024C11.8613 8.93576 11.8438 8.8932 11.813 8.86112C11.7822 8.82903 11.7403 8.8098 11.6959 8.80727Z" fill="#7A7B85"/>
<path d="M18.8418 5.65819C18.0105 4.81863 17.0215 4.15161 15.9316 3.69544C14.8417 3.23926 13.6724 3.00294 12.4909 3.00003C11.3093 2.99712 10.1389 3.22769 9.04678 3.67849C7.95465 4.12929 6.96235 4.79144 6.1269 5.6269C5.29144 6.46235 4.62929 7.45465 4.17849 8.54678C3.72769 9.63891 3.49712 10.8093 3.50003 11.9909C3.50294 13.1724 3.73926 14.3417 4.19544 15.4316C4.65161 16.5215 5.31863 17.5105 6.15819 18.3418C6.98952 19.1814 7.97855 19.8484 9.06845 20.3046C10.1583 20.7607 11.3276 20.9971 12.5091 21C13.6907 21.0029 14.8611 20.7723 15.9532 20.3215C17.0454 19.8707 18.0377 19.2086 18.8731 18.3731C19.7086 17.5377 20.3707 16.5454 20.8215 15.4532C21.2723 14.3611 21.5029 13.1907 21.5 12.0091C21.4971 10.8276 21.2607 9.65834 20.8046 8.56845C20.3484 7.47855 19.6814 6.48952 18.8418 5.65819ZM9.32089 19.0009C9.14049 18.7475 8.97369 18.4847 8.8212 18.2137C8.74112 18.0659 8.62741 17.8429 8.55173 17.688C8.53439 17.6512 8.50956 17.6185 8.47883 17.5919C8.4481 17.5653 8.41216 17.5454 8.3733 17.5335C8.33444 17.5216 8.29352 17.5179 8.25316 17.5227C8.2128 17.5275 8.17389 17.5407 8.13893 17.5614C7.96676 17.6579 7.73854 17.7905 7.57318 17.899C7.2264 17.6354 6.90989 17.3342 6.62945 17.0009C7.01728 16.7272 7.42418 16.4815 7.84704 16.2658C7.92152 16.2257 7.95795 16.1801 7.93433 16.0984C7.62451 15.0261 7.43529 13.9226 7.37018 12.8084C7.36824 12.7638 7.34932 12.7217 7.3173 12.6907C7.28529 12.6596 7.2426 12.642 7.19801 12.6414H4.92618C4.90687 12.6416 4.88813 12.6349 4.87342 12.6224C4.8587 12.6099 4.849 12.5925 4.84611 12.5734C4.82094 12.3833 4.8097 12.1917 4.81247 12C4.80973 11.8087 4.82124 11.6174 4.84691 11.4278C4.8498 11.4087 4.8595 11.3913 4.87422 11.3788C4.88893 11.3663 4.90767 11.3596 4.92698 11.3598H7.19881C7.2905 11.3598 7.36577 11.3069 7.37058 11.2144C7.43483 10.1048 7.62285 9.00588 7.93113 7.93802C7.94261 7.89904 7.94013 7.85728 7.92412 7.81993C7.90812 7.78259 7.87958 7.75199 7.84344 7.73342C7.42966 7.5214 7.03052 7.28197 6.64867 7.01672C6.92762 6.68351 7.23788 6.37782 7.57518 6.10383C7.73854 6.21113 7.95155 6.33245 8.12211 6.42854C8.1597 6.44991 8.20128 6.46333 8.24426 6.46798C8.28725 6.47263 8.33073 6.46841 8.37202 6.45557C8.41331 6.44273 8.45152 6.42156 8.48429 6.39336C8.51706 6.36515 8.5437 6.33052 8.56254 6.29161C8.63782 6.13666 8.7227 5.96409 8.80518 5.81594C8.95833 5.54153 9.12593 5.27543 9.30727 5.01876C10.3056 4.54844 11.3964 4.30713 12.5 4.31247C13.6587 4.31247 14.7382 4.59275 15.7244 5.0516C15.8985 5.29608 16.0589 5.55005 16.2048 5.81234C16.3085 5.99892 16.4186 6.22755 16.5115 6.42574C16.5215 6.44685 16.5357 6.4657 16.5532 6.48114C16.5707 6.49659 16.5912 6.5083 16.6133 6.51557C16.6355 6.52284 16.659 6.52551 16.6822 6.52342C16.7055 6.52133 16.728 6.51453 16.7486 6.50342C16.964 6.3869 17.1974 6.25277 17.4028 6.11784C17.7411 6.39452 18.0521 6.70289 18.3317 7.03874C17.9603 7.29631 17.5715 7.52789 17.1682 7.73182C17.132 7.75041 17.1034 7.78109 17.0875 7.81854C17.0715 7.85599 17.0692 7.89784 17.0809 7.93682C17.3942 8.99742 17.5803 10.0915 17.6354 11.196C17.6376 11.2403 17.6566 11.2821 17.6887 11.3128C17.7207 11.3435 17.7632 11.3607 17.8076 11.361L20.0746 11.3582C20.0939 11.358 20.1127 11.3647 20.1274 11.3772C20.1421 11.3897 20.1518 11.4071 20.1547 11.4262C20.2014 11.8068 20.2014 12.1916 20.1547 12.5722C20.152 12.5914 20.1424 12.609 20.1276 12.6217C20.1129 12.6343 20.094 12.6412 20.0746 12.641H17.8056C17.761 12.6415 17.7182 12.6591 17.6862 12.6902C17.6542 12.7212 17.6353 12.7634 17.6334 12.808C17.5711 13.9105 17.3848 15.0024 17.0781 16.0632C17.0665 16.1026 17.0689 16.1448 17.0849 16.1827C17.1008 16.2206 17.1294 16.2518 17.1658 16.271C17.366 16.3747 17.589 16.4904 17.7812 16.6081C17.9734 16.7258 18.1635 16.8516 18.3469 16.9821C18.0695 17.3164 17.7611 17.6237 17.426 17.9002C17.3283 17.8357 17.2122 17.7624 17.1121 17.7024C17.0433 17.6623 16.9163 17.5915 16.8459 17.5518C16.6929 17.4662 16.5303 17.5302 16.4539 17.688C16.3774 17.8457 16.2605 18.0719 16.1788 18.2185C16.0283 18.4879 15.8632 18.749 15.6843 19.0005C14.6986 19.4621 13.6587 19.6875 12.5 19.6875C11.3413 19.6875 10.3071 19.4621 9.32089 19.0009Z" fill="#7A7B85"/>
</svg>
