<svg width="206" height="172" viewBox="0 0 206 172" fill="none" xmlns="http://www.w3.org/2000/svg">
<path d="M63.4907 66.9765C64.0652 67.3331 64.6293 67.6964 65.1925 68.0716C71.1422 83.0107 74.5393 98.8399 75.2423 114.901C75.3289 116.758 75.3729 118.612 75.3742 120.464C75.4255 134.349 73.4008 148.164 69.3669 161.453C69.1541 162.153 68.9366 162.849 68.7145 163.543C68.5554 164.041 68.3933 164.544 68.2176 165.038C68.0307 165.291 67.8466 165.54 67.6626 165.789C67.6496 165.799 67.6383 165.818 67.6251 165.829C67.5509 165.929 67.4768 166.03 67.4101 166.128C67.0919 166.554 66.7689 166.978 66.4508 167.404L66.7188 167.422L67.3905 167.465L67.3877 167.469C67.1622 167.465 66.9321 167.457 66.7047 167.445C66.6221 167.446 66.5321 167.448 66.4477 167.44C66.3725 167.439 66.2927 167.434 66.2174 167.433C56.5321 167.171 46.6202 166.689 37.8065 162.736C28.5815 158.595 20.7562 149.642 21.1539 139.559C21.2098 138.238 21.4106 136.927 21.7526 135.65C21.8954 135.117 22.0641 134.593 22.2448 134.07C23.3449 130.869 25.2795 128.017 27.8497 125.809C30.4199 123.601 33.533 122.116 36.8689 121.507C40.2048 120.898 43.6431 121.186 46.8303 122.342C50.0175 123.499 52.8386 125.481 55.0036 128.086C52.3598 117.717 41.0101 112.426 30.7877 109.209C20.5578 105.994 9.04815 102.631 3.82178 93.2879C0.903794 88.0887 0.833535 82.0312 2.73756 76.4375C2.79552 76.2704 2.85641 76.0985 2.92186 75.9295C5.31987 69.348 10.118 63.9119 16.3574 60.7074C28.0478 54.9309 42.2532 56.969 54.2315 62.1248C57.4363 63.5061 60.5316 65.128 63.4907 66.9765Z" fill="#E9E9EB"/>
<path d="M29.9849 134.11C39.1737 134.954 47.8468 138.725 54.7222 144.867C60.5779 150.156 64.8988 156.921 67.2313 164.452C67.367 164.883 67.4905 165.313 67.6066 165.745C67.8388 165.304 68.0643 164.853 68.2872 164.406C68.4307 164.12 68.577 163.83 68.7158 163.541C68.5566 164.039 68.3946 164.542 68.2188 165.036C68.032 165.289 67.8479 165.538 67.6639 165.786C67.6509 165.797 67.6396 165.815 67.6264 165.827C67.5522 165.927 67.4781 166.027 67.4114 166.126C67.0932 166.552 66.7702 166.976 66.4521 167.402L66.7201 167.42L67.3918 167.463L67.389 167.467C67.1635 167.462 66.9334 167.455 66.706 167.443C66.6234 167.443 66.5333 167.445 66.449 167.438C66.4212 167.307 66.3861 167.178 66.351 167.049C63.9703 157.323 58.1428 148.785 49.9452 143.013C41.7476 137.241 31.7338 134.625 21.7539 135.648C21.8967 135.115 22.0654 134.591 22.2461 134.068C24.8221 133.857 27.4115 133.872 29.9849 134.11Z" fill="white"/>
<path d="M60.5149 95.7572C64.2018 98.514 67.4654 101.793 70.2022 105.492C71.6283 107.463 72.8672 109.563 73.903 111.764C74.3941 112.785 74.8411 113.837 75.2435 114.899C75.3301 116.756 75.3741 118.611 75.3754 120.462C75.0336 119.063 74.6172 117.682 74.1278 116.327C73.8732 115.582 73.5906 114.853 73.2902 114.132C69.9209 106.055 63.8167 99.6776 56.6174 94.8291C48.9029 89.6412 40.2057 85.7467 31.3916 82.8508C22.3587 79.8691 12.9936 78.0037 3.50581 77.2964C3.29154 77.2791 3.09221 77.18 2.94934 77.0197C2.80648 76.8594 2.73107 76.6503 2.73883 76.4359C2.73154 76.249 2.79767 76.0667 2.92312 75.9278C2.98977 75.8627 3.0708 75.814 3.15971 75.7858C3.24861 75.7576 3.34292 75.7506 3.43504 75.7653C4.60587 75.8527 5.77367 75.9451 6.9414 76.0687C16.6576 77.0674 26.2115 79.2684 35.3833 82.6207C44.2373 85.8449 52.9999 90.0261 60.5149 95.7572Z" fill="white"/>
<path d="M12.3726 51.0877C14.1661 51.0877 15.6201 49.6368 15.6201 47.8471C15.6201 46.0573 14.1661 44.6064 12.3726 44.6064C10.579 44.6064 9.125 46.0573 9.125 47.8471C9.125 49.6368 10.579 51.0877 12.3726 51.0877Z" fill="#F2F2F2"/>
<path d="M148.706 78.1992H115.336V169.717H148.706V78.1992Z" fill="#F9575E"/>
<rect x="65.0234" y="66.3174" width="133.452" height="103.491" rx="5.82854" fill="#5D6CCF"/>
<path opacity="0.2" d="M65.0234 64.1333V82.5783L198.476 91.0993L198.082 68.3402L65.0234 64.1333Z" fill="black"/>
<path d="M114.613 78.7124H148.159V166.172C148.159 169.391 145.549 172 142.33 172H120.442C117.223 172 114.613 169.391 114.613 166.172V78.7124Z" fill="#3F3D56"/>
<rect x="206" y="45.9082" width="32.5706" height="149" rx="5.82854" transform="rotate(90 206 45.9082)" fill="#5D6CCF"/>
<path d="M147.979 42.5293H114.609V77.818H147.979V42.5293Z" fill="#3F3D56"/>
<path d="M127.924 13.2189C136.733 26.2686 128.433 47.2571 128.433 47.2571C128.433 47.2571 105.852 47.088 97.0437 34.0383C88.235 20.9886 96.5344 0 96.5344 0C96.5344 0 119.115 0.169189 127.924 13.2189Z" fill="#3F3D56"/>
<path d="M131.967 13.2189C123.159 26.2686 131.458 47.2571 131.458 47.2571C131.458 47.2571 154.039 47.088 162.848 34.0383C171.656 20.9886 163.357 0 163.357 0C163.357 0 140.776 0.169189 131.967 13.2189Z" fill="#3F3D56"/>
<path d="M36.7357 162.118C48.5761 162.118 58.1746 152.539 58.1746 140.722C58.1746 128.905 48.5761 119.326 36.7357 119.326C24.8954 119.326 15.2969 128.905 15.2969 140.722C15.2969 152.539 24.8954 162.118 36.7357 162.118Z" fill="#3F3D56"/>
<path d="M33.4779 157.514H26.9648V169.16H33.4779V157.514Z" fill="#3F3D56"/>
<path d="M46.5052 157.514H39.9922V169.16H46.5052V157.514Z" fill="#3F3D56"/>
<path d="M32.3924 171.326C35.39 171.326 37.82 170.417 37.82 169.295C37.82 168.173 35.39 167.264 32.3924 167.264C29.3948 167.264 26.9648 168.173 26.9648 169.295C26.9648 170.417 29.3948 171.326 32.3924 171.326Z" fill="#3F3D56"/>
<path d="M45.4198 171.055C48.4173 171.055 50.8473 170.145 50.8473 169.024C50.8473 167.902 48.4173 166.993 45.4198 166.993C42.4222 166.993 39.9922 167.902 39.9922 169.024C39.9922 170.145 42.4222 171.055 45.4198 171.055Z" fill="#3F3D56"/>
<path d="M15.938 120.824C14.207 113.087 19.7405 105.269 28.2977 103.362C36.8549 101.455 45.1951 106.181 46.9262 113.919C48.6572 121.656 42.9861 124.509 34.429 126.416C25.8719 128.323 17.6691 128.561 15.938 120.824Z" fill="#5D6CCF"/>
<path d="M59.8376 131.372C64.4806 126.735 67.0619 121.796 65.6032 120.341C64.1446 118.887 59.1982 121.467 54.5552 126.104C49.9123 130.741 47.3309 135.68 48.7896 137.134C50.2483 138.589 55.1947 136.009 59.8376 131.372Z" fill="#3F3D56"/>
<path d="M19.4548 138.627C20.9135 137.172 18.3321 132.234 13.6892 127.597C9.04624 122.959 4.09987 120.379 2.64119 121.834C1.1825 123.289 3.76386 128.227 8.40682 132.864C13.0498 137.502 17.9961 140.082 19.4548 138.627Z" fill="#3F3D56"/>
<path d="M35.8331 145.003C39.8798 145.003 43.1603 141.729 43.1603 137.69C43.1603 133.652 39.8798 130.378 35.8331 130.378C31.7864 130.378 28.5059 133.652 28.5059 137.69C28.5059 141.729 31.7864 145.003 35.8331 145.003Z" fill="white"/>
<path d="M35.833 140.126C37.1819 140.126 38.2755 139.035 38.2755 137.689C38.2755 136.343 37.1819 135.252 35.833 135.252C34.4841 135.252 33.3906 136.343 33.3906 137.689C33.3906 139.035 34.4841 140.126 35.833 140.126Z" fill="#3F3D56"/>
<path d="M41.6494 151.214C41.7615 151.828 41.7512 152.459 41.6191 153.069C41.4871 153.68 41.2358 154.258 40.8798 154.772C40.5237 155.285 40.0697 155.724 39.5438 156.062C39.0179 156.401 38.4304 156.633 37.8147 156.744C37.1991 156.856 36.5674 156.846 35.9557 156.714C35.3441 156.582 34.7644 156.332 34.2498 155.976C33.7352 155.621 33.2958 155.168 32.9567 154.643C32.6175 154.118 32.3853 153.532 32.2732 152.917L32.2715 152.908C31.8027 150.324 33.8049 149.409 36.3946 148.941C38.9842 148.474 41.1806 148.63 41.6494 151.214Z" fill="white"/>
</svg>
