<svg width="96" height="96" viewBox="0 0 96 96" fill="none" xmlns="http://www.w3.org/2000/svg">
<path d="M0 24C0 10.7452 10.7452 0 24 0H72C85.2548 0 96 10.7452 96 24V72C96 85.2548 85.2548 96 72 96H24C10.7452 96 0 85.2548 0 72V24Z" fill="url(#paint0_linear_2418_5879)"/>
<rect x="28" y="48" width="28" height="28" rx="4" transform="rotate(-45 28 48)" fill="white"/>
<path opacity="0.5" fill-rule="evenodd" clip-rule="evenodd" d="M48 75C62.9117 75 75 62.9117 75 48C75 33.0883 62.9117 21 48 21C33.0883 21 21 33.0883 21 48C21 62.9117 33.0883 75 48 75ZM48 81C66.2254 81 81 66.2254 81 48C81 29.7746 66.2254 15 48 15C29.7746 15 15 29.7746 15 48C15 66.2254 29.7746 81 48 81Z" fill="white"/>
<defs>
<linearGradient id="paint0_linear_2418_5879" x1="0" y1="0" x2="96" y2="96" gradientUnits="userSpaceOnUse">
<stop stop-color="#F09E26"/>
<stop offset="1" stop-color="#F0AE4D"/>
</linearGradient>
</defs>
</svg>
