<svg width="56" height="56" viewBox="0 0 56 56" fill="none" xmlns="http://www.w3.org/2000/svg">
<path d="M20.6303 49C14.969 49 9.6918 47.3534 5.25 44.5123C9.02124 44.7564 15.6766 44.172 19.8163 40.2234C13.5889 39.9376 10.7805 35.1615 10.4141 33.1204C10.9433 33.3245 13.4668 33.5695 14.8913 32.998C7.72782 31.2018 6.62887 24.9153 6.87308 22.9967C8.21624 23.9356 10.4955 24.2622 11.391 24.1805C4.71589 19.4044 7.1173 12.2198 8.29765 10.6686C13.0879 17.3052 20.2671 21.0325 29.1487 21.2398C28.9812 20.5054 28.8928 19.7407 28.8928 18.9554C28.8928 13.3191 33.4485 8.75 39.0682 8.75C42.0045 8.75 44.6502 9.99732 46.5075 11.9925C48.4696 11.5327 51.4225 10.4564 52.8661 9.52561C52.1385 12.1382 49.8731 14.3176 48.5028 15.1254C48.5142 15.1529 48.4917 15.0978 48.5028 15.1254C49.7065 14.9433 52.9634 14.3174 54.25 13.4445C53.6137 14.9122 51.212 17.3525 49.241 18.7187C49.6077 34.8916 37.2338 49 20.6303 49Z" fill="#47ACDF"/>
</svg>
