<svg width="201" height="172" viewBox="0 0 201 172" fill="none" xmlns="http://www.w3.org/2000/svg">
<rect x="70.7402" y="0.5" width="129" height="120" fill="#394747" stroke="#42E6EB"/>
<path d="M15.0526 157.843C16.2075 158.249 17.4476 158.35 18.6533 158.138C19.8591 157.926 20.9897 157.406 21.9365 156.63C24.3476 154.606 25.1037 151.273 25.7186 148.186L27.5379 139.055L23.729 141.677C20.9897 143.563 18.1889 145.51 16.2924 148.242C14.3959 150.974 13.5685 154.703 15.0918 157.659" fill="#7B8485"/>
<path d="M15.6392 169.534C15.1598 166.041 14.6666 162.503 15.0037 158.973C15.3024 155.838 16.2589 152.776 18.2063 150.265C19.2399 148.935 20.4977 147.795 21.923 146.897C22.2946 146.662 22.6367 147.251 22.2667 147.485C19.8004 149.043 17.8928 151.345 16.8189 154.058C15.6329 157.074 15.4424 160.362 15.6467 163.567C15.7702 165.505 16.0326 167.43 16.2962 169.353C16.317 169.44 16.304 169.531 16.2598 169.609C16.2157 169.687 16.1436 169.745 16.0583 169.771C15.9712 169.795 15.8784 169.783 15.8 169.739C15.7216 169.694 15.6639 169.62 15.6395 169.534L15.6392 169.534Z" fill="#4F5B5C"/>
<path d="M19.0898 163.929C19.5851 164.682 20.266 165.295 21.0669 165.709C21.8677 166.122 22.7616 166.322 23.6623 166.29C25.9777 166.18 27.9071 164.565 29.6438 163.031L34.7817 158.494L31.3814 158.332C28.936 158.215 26.4275 158.105 24.0984 158.86C21.7692 159.615 19.6212 161.429 19.1954 163.84" fill="#7B8485"/>
<path d="M14.285 171.541C16.5931 167.457 19.27 162.919 24.0536 161.468C25.3835 161.066 26.7781 160.922 28.1621 161.044C28.5984 161.082 28.4894 161.754 28.054 161.716C25.734 161.524 23.4185 162.136 21.4972 163.451C19.6484 164.71 18.2088 166.459 16.9905 168.314C16.2442 169.451 15.5757 170.636 14.9072 171.819C14.6936 172.197 14.0689 171.924 14.285 171.541Z" fill="#4F5B5C"/>
<path d="M56.2616 103.693C56.2367 103.167 56.0966 102.652 55.8512 102.186C55.6059 101.719 55.2612 101.312 54.8415 100.993C54.4218 100.674 53.9372 100.451 53.422 100.34C52.9068 100.228 52.3734 100.231 51.8594 100.348L47.0911 93.6284L42.3008 95.5301L49.1678 104.925C49.4216 105.776 49.9786 106.503 50.7332 106.971C51.4877 107.438 52.3875 107.612 53.2619 107.46C54.1363 107.308 54.9246 106.841 55.4775 106.147C56.0304 105.452 56.3094 104.58 56.2616 103.693H56.2616Z" fill="#A0616A"/>
<path d="M46.9671 103.196L32.5391 84.4783L37.9451 67.4879C38.3413 63.2163 41.0143 62.0236 41.128 61.9748L41.3015 61.9004L46.0058 74.4455L42.5517 83.6563L51.0296 97.9148L46.9671 103.196Z" fill="#7B8485"/>
<path d="M97.0719 45.496C96.5488 45.5616 96.0465 45.7411 95.6004 46.0218C95.1542 46.3025 94.775 46.6776 94.4895 47.1207C94.204 47.5638 94.0191 48.0641 93.9478 48.5864C93.8766 49.1087 93.9207 49.6403 94.0771 50.1437L87.7461 55.4172L90.0125 60.0462L98.8485 52.4734C99.6768 52.1545 100.359 51.543 100.767 50.7545C101.174 49.9661 101.278 49.0556 101.059 48.1956C100.84 47.3355 100.313 46.5857 99.5785 46.0881C98.8436 45.5906 97.9517 45.3799 97.0719 45.496V45.496Z" fill="#CC9292"/>
<path d="M97.2943 54.7997L79.7484 70.6318L62.3909 66.5555C58.1014 66.4908 56.7056 63.9181 56.6482 63.8084L56.5605 63.6412L68.7044 57.9811L78.1546 60.7126L91.715 51.1577L97.2943 54.7997Z" fill="#7B8485"/>
<path d="M66.9013 167.35L71.6156 167.35L73.858 149.167L66.9004 149.167L66.9013 167.35Z" fill="#CC9292"/>
<path d="M80.707 171.727L65.8908 171.727L65.8906 166.003L76.55 166.002C77.6525 166.002 78.7098 166.44 79.4893 167.22C80.2689 167.999 80.7069 169.056 80.707 170.159L80.707 171.727L80.707 171.727Z" fill="#394747"/>
<path d="M48.0611 167.35L52.7754 167.35L55.0182 149.167L48.0605 149.167L48.0611 167.35Z" fill="#CC9292"/>
<path d="M61.8672 171.727L47.051 171.727L47.0507 166.003L57.7102 166.002C58.2561 166.002 58.7966 166.11 59.3009 166.319C59.8053 166.528 60.2635 166.834 60.6495 167.22C61.0355 167.606 61.3417 168.064 61.5506 168.568C61.7596 169.072 61.8671 169.613 61.8671 170.159L61.8672 171.727V171.727Z" fill="#394747"/>
<path d="M46.3828 100.978L46.7673 127.895L47.1521 163.271L55.6115 162.502L59.8415 113.667L65.2249 162.502H73.9584L74.8381 113.283L71.7619 102.516L46.3828 100.978Z" fill="#394747"/>
<path d="M62.9416 104.592C53.7369 104.593 45.2642 100.427 45.1498 100.37L45.0548 100.322L44.2824 81.7848C44.0584 81.1297 39.6477 68.2037 38.9007 64.0952C38.1438 59.9327 49.1131 56.2795 50.4451 55.8523L50.7474 52.5038L63.0398 51.1792L64.5978 55.4638L69.0078 57.1174C69.5078 57.3051 69.9215 57.6695 70.1707 58.1418C70.4199 58.6141 70.4871 59.1614 70.3598 59.68L67.9087 69.6474L73.8949 102.624L72.6061 102.68C69.517 104.075 66.183 104.592 62.9416 104.592Z" fill="#7B8485"/>
<path d="M61.6198 47.9737C65.9088 45.6291 67.4851 40.2514 65.1405 35.9624C62.7959 31.6734 57.4183 30.0971 53.1292 32.4417C48.8402 34.7863 47.264 40.164 49.6086 44.453C51.9532 48.742 57.3308 50.3183 61.6198 47.9737Z" fill="#CC9292"/>
<path d="M50.2078 48.7763C51.8945 50.573 55.0269 49.6085 55.2467 47.1539C55.2639 46.9633 55.2627 46.7716 55.243 46.5812C55.1295 45.494 54.5014 44.5069 54.6518 43.3589C54.6859 43.0731 54.7923 42.8009 54.9611 42.5678C56.3052 40.7679 59.4603 43.3728 60.7288 41.7435C61.5067 40.7444 60.5923 39.1714 61.1892 38.0547C61.977 36.5809 64.3104 37.308 65.7737 36.5008C67.4018 35.6028 67.3045 33.1048 66.2327 31.5854C64.9257 29.7325 62.6341 28.7437 60.371 28.6012C58.108 28.4587 55.8605 29.0705 53.7477 29.8939C51.3472 30.8294 48.9667 32.1223 47.4894 34.2331C45.6929 36.8 45.5201 40.2511 46.4185 43.2527C46.9651 45.0786 48.8304 47.3091 50.2078 48.7763Z" fill="#394747"/>
<path d="M112.462 171.955H0.294404C0.216323 171.955 0.141435 171.924 0.0862241 171.868C0.0310127 171.813 0 171.738 0 171.66C0 171.582 0.0310127 171.507 0.0862241 171.452C0.141435 171.397 0.216323 171.366 0.294404 171.366H112.462C112.54 171.366 112.615 171.397 112.67 171.452C112.726 171.507 112.757 171.582 112.757 171.66C112.757 171.738 112.726 171.813 112.67 171.868C112.615 171.924 112.54 171.955 112.462 171.955Z" fill="#4F5B5C"/>
<path d="M100.051 49.1489C97.1978 49.1489 94.4087 48.3029 92.0364 46.7178C89.664 45.1327 87.815 42.8797 86.7231 40.2437C85.6313 37.6078 85.3456 34.7072 85.9022 31.9089C86.4588 29.1106 87.8327 26.5401 89.8502 24.5226C91.8677 22.5051 94.4381 21.1312 97.2364 20.5746C100.035 20.0179 102.935 20.3036 105.571 21.3955C108.207 22.4873 110.46 24.3363 112.045 26.7086C113.631 29.0809 114.477 31.87 114.477 34.7231C114.472 38.5477 112.951 42.2145 110.247 44.9189C107.542 47.6233 103.876 49.1445 100.051 49.1489V49.1489Z" fill="#42E6EB"/>
<path d="M99.2159 40.1721C98.9558 40.1724 98.7052 40.074 98.5148 39.8967L93.7581 35.4785C93.5582 35.2924 93.4403 35.0346 93.4304 34.7617C93.4204 34.4888 93.5192 34.2231 93.7051 34.023C93.891 33.8229 94.1486 33.7047 94.4215 33.6945C94.6944 33.6843 94.9602 33.7829 95.1605 33.9685L99.1896 37.7109L107.161 29.7396C107.257 29.6433 107.37 29.5669 107.495 29.5146C107.621 29.4623 107.755 29.4353 107.891 29.4351C108.026 29.4348 108.161 29.4613 108.286 29.5131C108.411 29.5649 108.525 29.641 108.621 29.7369C108.717 29.8329 108.793 29.9468 108.845 30.0722C108.897 30.1976 108.923 30.3319 108.923 30.4676C108.923 30.6032 108.896 30.7375 108.843 30.8627C108.791 30.9878 108.714 31.1014 108.618 31.197L99.9447 39.8704C99.8491 39.9662 99.7355 40.0421 99.6104 40.0939C99.4853 40.1457 99.3513 40.1723 99.2159 40.1721V40.1721Z" fill="#233333"/>
<rect x="131" y="30" width="56" height="3" fill="#7B8485"/>
<rect x="131" y="37" width="30" height="3" fill="#7B8485"/>
<rect x="83" y="68" width="105" height="3" fill="#7B8485"/>
<rect x="83" y="75" width="78" height="3" fill="#7B8485"/>
<rect x="83" y="82" width="105" height="3" fill="#7B8485"/>
<rect x="83" y="89" width="78" height="3" fill="#7B8485"/>
<rect x="83" y="96" width="105" height="3" fill="#7B8485"/>
<rect x="83" y="103" width="78" height="3" fill="#7B8485"/>
</svg>
