<svg width="276" height="172" viewBox="0 0 276 172" fill="none" xmlns="http://www.w3.org/2000/svg">
<path d="M26.0346 166.536C27.2557 168.182 28.7694 169.589 30.5001 170.686C30.8682 170.919 31.246 171.14 31.6305 171.343H40.6765C40.5682 171.126 40.463 170.906 40.3611 170.686C37.5563 164.767 36.6767 158.119 37.8461 151.674C39.0155 145.23 42.175 139.314 46.8805 134.758C41.4127 136.447 36.3589 139.739 33.0533 144.409C31.4471 146.682 30.3048 149.251 29.6918 151.966C29.1455 146.535 30.0137 141.055 32.212 136.059C27.7728 139.67 24.3159 144.616 22.9983 150.182C21.6807 155.752 22.6368 161.932 26.0346 166.536Z" fill="#4F5B5C"/>
<path d="M105.142 61.1883C104.606 61.1495 104.068 61.2288 103.566 61.4204C103.064 61.612 102.61 61.9113 102.237 62.2972C101.863 62.6831 101.579 63.1463 101.403 63.6541C101.228 64.1619 101.166 64.702 101.222 65.2363L89.3984 70.7793L95.1856 74.3228L105.526 68.5158C106.418 68.3623 107.222 67.8871 107.786 67.1803C108.35 66.4736 108.636 65.5844 108.589 64.6812C108.541 63.778 108.164 62.9235 107.529 62.2798C106.893 61.636 106.044 61.2476 105.142 61.1883Z" fill="#CC9292"/>
<path d="M56.2135 167.835L60.297 167.835L62.2396 152.085L56.2129 152.085L56.2135 167.835Z" fill="#CC9292"/>
<path d="M55.1738 166.502L63.2154 166.502H63.2158C64.5749 166.502 65.8783 167.042 66.8394 168.003C67.8004 168.964 68.3404 170.267 68.3405 171.627V171.793L55.1741 171.794L55.1738 166.502Z" fill="#394747"/>
<path d="M77.0514 167.835L81.1349 167.835L83.0775 152.085L77.0508 152.085L77.0514 167.835Z" fill="#CC9292"/>
<path d="M76.0098 166.502L84.0514 166.502H84.0517C85.4108 166.502 86.7143 167.042 87.6753 168.003C88.6364 168.964 89.1763 170.267 89.1764 171.627V171.793L76.01 171.794L76.0098 166.502Z" fill="#394747"/>
<path d="M79.7782 86.1436L81.8507 90.6055L85.5871 130.509L82.6827 164.807H75.8897L67.874 110.746L64.109 163.562L54.9432 163.192L53.1836 91.5847L79.7782 86.1436Z" fill="#394747"/>
<path d="M46.7509 49.3201L55.3434 45.8242L67.4714 46.5044L78.2535 50.4336L81.8508 90.6057C72.4707 95.7278 62.969 97.1259 53.3019 93.4633L44.3301 67.2982L46.7509 49.3201Z" fill="#7B8485"/>
<path d="M74.9006 51.4953L78.7137 50.4332C78.7137 50.4332 81.5977 48.558 82.5466 54.1324C83.4955 59.7068 88.3781 68.3775 88.3781 68.3775L96.7364 63.923L100.606 72.374L87.4064 80.3698L73.5059 66.3638L74.9006 51.4953Z" fill="#7B8485"/>
<path d="M53.9847 38.381C53.5216 37.3302 53.2701 36.1986 53.2444 35.0507C53.2187 33.9027 53.4193 32.761 53.8349 31.6906C54.2504 30.6202 54.8727 29.6421 55.6662 28.8123C56.4597 27.9824 57.409 27.3169 58.4597 26.8538C59.5104 26.3908 60.642 26.1392 61.79 26.1135C62.9379 26.0878 64.0796 26.2885 65.15 26.704C66.2204 27.1195 67.1985 27.7418 68.0284 28.5354C68.8583 29.3289 69.5237 30.2781 69.9868 31.3288L70.0368 31.4445C70.9568 33.5736 70.9934 35.9809 70.1384 38.137C69.7151 39.2045 69.0857 40.1782 68.286 41.0025C67.4864 41.8268 66.5322 42.4856 65.478 42.9411C63.3489 43.8612 60.9416 43.8977 58.7856 43.0428C56.6295 42.1879 54.9014 40.5114 53.9814 38.3824L53.9847 38.381Z" fill="#CC9292"/>
<path d="M65.8546 30.3793C67.6726 30.7092 70.4862 31.8538 72.0476 30.511C71.2765 29.6099 70.3065 28.9004 69.2142 28.4384C68.999 28.3671 68.7998 28.2545 68.6277 28.107C68.0953 27.569 68.5066 26.642 68.263 25.9146C68.1447 25.6488 67.9663 25.4141 67.7419 25.229C67.5174 25.0439 67.253 24.9135 66.9695 24.848C66.4276 24.6859 65.8597 24.6595 65.3273 24.4629C64.0674 23.9894 63.1717 22.6344 61.8803 22.2661C60.7552 21.9407 59.623 22.4465 58.6519 23.0368C57.6809 23.6271 56.7202 24.3274 55.5842 24.4395C54.7353 24.5169 54.1979 25.9133 53.3456 25.9542C51.5596 26.0411 51.6588 24.8639 51.5267 26.7402C51.4505 27.8598 49.8507 30.0871 49.8767 31.2165C49.9031 31.9565 49.7722 32.6894 49.7933 33.4318C49.8414 34.8455 50.4084 36.1921 51.3862 37.2143C52.1993 38.0505 53.2568 38.6145 53.9413 39.5676C54.2972 40.0735 54.5441 40.6642 54.9585 41.122C55.3728 41.5798 56.0746 41.8553 56.5371 41.5285C56.9995 41.2016 57.0081 40.4943 57.2376 39.956C57.3783 39.626 57.6187 39.3482 57.9252 39.1617C58.2316 38.9751 58.5887 38.8891 58.9465 38.9157C59.3181 38.9642 59.6688 39.1155 59.9591 39.3525C60.2494 39.5895 60.4678 39.9028 60.5898 40.2572C60.3732 39.0676 59.8023 37.9531 59.5854 36.7626C59.3684 35.5722 59.6512 34.1501 60.6762 33.6853C61.1164 33.4805 61.7109 33.4255 61.8878 32.9536C61.9961 32.6693 61.897 32.3334 61.9388 32.026C62.164 30.5194 64.6691 30.1467 65.8546 30.3793Z" fill="#394747"/>
<path d="M54.3341 92.9994C54.2557 92.4679 54.0618 91.9601 53.7659 91.5117C53.4701 91.0633 53.0795 90.6852 52.6217 90.404C52.164 90.1229 51.6501 89.9456 51.1164 89.8845C50.5827 89.8234 50.0421 89.8802 49.5326 90.0506L41.5581 79.71L39.3535 86.1277L47.2642 94.9635C47.6073 95.8003 48.2455 96.4822 49.0578 96.88C49.8701 97.2777 50.8001 97.3637 51.6715 97.1216C52.543 96.8795 53.2953 96.3262 53.7861 95.5664C54.2768 94.8066 54.4718 93.8933 54.3341 92.9994V92.9994Z" fill="#CC9292"/>
<path d="M49.5054 51.2702L46.751 49.3199C46.751 49.3199 40.4496 48.9589 39.5329 54.1326L27.9785 73.1401L42.3045 92.9041L49.2502 85.5927L40.4863 75.3512L47.8445 61.8409L49.5054 51.2702Z" fill="#7B8485"/>
<path d="M116.612 54.2819H116.467V50.3233C116.467 50.0225 116.408 49.7245 116.293 49.4466C116.178 49.1686 116.009 48.916 115.796 48.7033C115.583 48.4905 115.331 48.3218 115.053 48.2066C114.775 48.0915 114.477 48.0322 114.176 48.0322H105.789C105.488 48.0322 105.19 48.0915 104.912 48.2066C104.634 48.3218 104.382 48.4905 104.169 48.7033C103.956 48.916 103.788 49.1686 103.672 49.4466C103.557 49.7245 103.498 50.0225 103.498 50.3233V72.0404C103.498 72.3413 103.557 72.6392 103.672 72.9172C103.788 73.1951 103.956 73.4477 104.169 73.6604C104.382 73.8732 104.634 74.042 104.912 74.1571C105.19 74.2722 105.488 74.3315 105.789 74.3315H114.176C114.477 74.3315 114.775 74.2722 115.053 74.1571C115.331 74.042 115.583 73.8732 115.796 73.6604C116.009 73.4477 116.178 73.1951 116.293 72.9172C116.408 72.6392 116.467 72.3413 116.467 72.0404V57.0997H116.612V54.2819Z" fill="#394747"/>
<path d="M114.269 48.6279H113.174C113.225 48.7514 113.244 48.8853 113.23 49.0179C113.217 49.1505 113.171 49.2777 113.096 49.3884C113.022 49.499 112.921 49.5896 112.804 49.6523C112.686 49.715 112.555 49.7478 112.422 49.7478H107.617C107.484 49.7478 107.352 49.715 107.235 49.6523C107.117 49.5896 107.017 49.499 106.942 49.3883C106.868 49.2777 106.822 49.1505 106.808 49.0179C106.795 48.8853 106.814 48.7514 106.864 48.6279H105.842C105.388 48.6279 104.953 48.8082 104.632 49.1291C104.311 49.4499 104.131 49.8851 104.131 50.3389V72.0241C104.131 72.4779 104.311 72.9131 104.632 73.2339C104.953 73.5548 105.388 73.7351 105.842 73.7351H114.269C114.723 73.7351 115.158 73.5548 115.479 73.2339C115.8 72.9131 115.98 72.4779 115.98 72.0241V50.3389C115.98 49.8851 115.8 49.4499 115.479 49.1291C115.158 48.8082 114.723 48.6279 114.269 48.6279Z" fill="#42E6EB"/>
<path d="M125.532 172H0.338358C0.25121 172 0.167631 171.965 0.106008 171.904C0.0443849 171.842 0.00976562 171.759 0.00976562 171.671C0.00976562 171.584 0.0443849 171.501 0.106008 171.439C0.167631 171.377 0.25121 171.343 0.338358 171.343H125.532C125.619 171.343 125.703 171.377 125.765 171.439C125.826 171.501 125.861 171.584 125.861 171.671C125.861 171.759 125.826 171.842 125.765 171.904C125.703 171.965 125.619 172 125.532 172Z" fill="#4F5B5C"/>
<rect x="212.24" y="51.25" width="63.5" height="40.5" fill="#394747" stroke="#42E6EB" stroke-width="0.5"/>
<rect x="223.99" y="58" width="40" height="3" fill="#7B8485"/>
<rect x="223.99" y="67" width="40" height="3" fill="#7B8485"/>
<circle cx="257.99" cy="81" r="6" fill="#42E6EB"/>
<path d="M258.241 80.7758V79.21H259.38V78.6406H258.241V78H257.672V78.6406H257.529C256.903 78.6406 256.391 79.153 256.391 79.7793V80.2064C256.391 80.8398 256.903 81.3452 257.529 81.3452H257.672V82.911H256.533V83.4804H257.672V84.121H258.241V83.4804H258.383C259.01 83.4804 259.522 82.9751 259.522 82.3416V81.9146C259.522 81.2882 259.01 80.7758 258.383 80.7758H258.241ZM257.529 80.7758C257.216 80.7758 256.96 80.5267 256.96 80.2064V79.7793C256.96 79.4662 257.216 79.21 257.529 79.21H257.672V80.7758H257.529ZM258.241 82.911V81.3452H258.383C258.697 81.3452 258.953 81.6014 258.953 81.9146V82.3416C258.953 82.6619 258.697 82.911 258.383 82.911H258.241Z" fill="#233333"/>
<rect x="170.24" y="26.25" width="63.5" height="40.5" fill="#394747" stroke="#42E6EB" stroke-width="0.5"/>
<rect x="181.99" y="33" width="40" height="3" fill="#7B8485"/>
<rect x="181.99" y="42" width="40" height="3" fill="#7B8485"/>
<circle cx="215.99" cy="56" r="6" fill="#42E6EB"/>
<path d="M216.241 55.7758V54.21H217.38V53.6406H216.241V53H215.672V53.6406H215.529C214.903 53.6406 214.391 54.153 214.391 54.7793V55.2064C214.391 55.8398 214.903 56.3452 215.529 56.3452H215.672V57.911H214.533V58.4804H215.672V59.121H216.241V58.4804H216.383C217.01 58.4804 217.522 57.9751 217.522 57.3416V56.9146C217.522 56.2882 217.01 55.7758 216.383 55.7758H216.241ZM215.529 55.7758C215.216 55.7758 214.96 55.5267 214.96 55.2064V54.7793C214.96 54.4662 215.216 54.21 215.529 54.21H215.672V55.7758H215.529ZM216.241 57.911V56.3452H216.383C216.697 56.3452 216.953 56.6014 216.953 56.9146V57.3416C216.953 57.6619 216.697 57.911 216.383 57.911H216.241Z" fill="#233333"/>
<rect x="127.24" y="0.25" width="63.5" height="40.5" fill="#394747" stroke="#42E6EB" stroke-width="0.5"/>
<rect x="138.99" y="7" width="40" height="3" fill="#7B8485"/>
<rect x="138.99" y="16" width="40" height="3" fill="#7B8485"/>
<circle cx="172.99" cy="30" r="6" fill="#42E6EB"/>
<path d="M173.241 29.7758V28.21H174.38V27.6406H173.241V27H172.672V27.6406H172.529C171.903 27.6406 171.391 28.153 171.391 28.7793V29.2064C171.391 29.8398 171.903 30.3452 172.529 30.3452H172.672V31.911H171.533V32.4804H172.672V33.121H173.241V32.4804H173.383C174.01 32.4804 174.522 31.9751 174.522 31.3416V30.9146C174.522 30.2882 174.01 29.7758 173.383 29.7758H173.241ZM172.529 29.7758C172.216 29.7758 171.96 29.5267 171.96 29.2064V28.7793C171.96 28.4662 172.216 28.21 172.529 28.21H172.672V29.7758H172.529ZM173.241 31.911V30.3452H173.383C173.697 30.3452 173.953 30.6014 173.953 30.9146V31.3416C173.953 31.6619 173.697 31.911 173.383 31.911H173.241Z" fill="#233333"/>
</svg>
